<svg xmlns="http://www.w3.org/2000/svg" xmlns:svgjs="http://svgjs.dev/svgjs" xmlns:xlink="http://www.w3.org/1999/xlink" width="1440" height="560" preserveAspectRatio="none" version="1.1" viewBox="0 0 1440 560"><g fill="none" mask="url(&quot;#SvgjsMask1118&quot;)"><rect width="1440" height="560" x="0" y="0" fill="url(&quot;#SvgjsRadialGradient1119&quot;)"/><path fill="rgba(255, 255, 255, .1)" d="M0 0L646.09 0L0 48.18z"/><path fill="rgba(255, 255, 255, .075)" d="M0 48.18L646.09 0L764.57 0L0 102.31z"/><path fill="rgba(255, 255, 255, .05)" d="M0 102.31L764.57 0L1143.27 0L0 217.22z"/><path fill="rgba(255, 255, 255, .025)" d="M0 217.22L1143.27 0L1316.09 0L0 381.82z"/><path fill="rgba(0, 0, 0, .1)" d="M1440 560L871.25 560L1440 335.41999999999996z"/><path fill="rgba(0, 0, 0, .075)" d="M1440 335.41999999999996L871.25 560L648.86 560L1440 209.85999999999996z"/><path fill="rgba(0, 0, 0, .05)" d="M1440 209.86L648.86 560L546.75 560L1440 89.87000000000002z"/><path fill="rgba(0, 0, 0, .025)" d="M1440 89.87L546.75 560L210.64 560L1440 26.870000000000005z"/></g><defs><mask id="SvgjsMask1118"><rect width="1440" height="560" fill="#fff"/></mask><radialGradient id="SvgjsRadialGradient1119" cx="50%" cy="0%" r="912.14" gradientUnits="userSpaceOnUse"><stop offset=".2" stop-color="rgba(14, 42, 71, 1)"/><stop offset="1" stop-color="rgba(255, 60, 172, 1)"/></radialGradient></defs></svg>