<svg xmlns="http://www.w3.org/2000/svg" version="1.1" xmlns:xlink="http://www.w3.org/1999/xlink" xmlns:svgjs="http://svgjs.dev/svgjs" width="1440" height="560" preserveAspectRatio="none" viewBox="0 0 1440 560">
    <g mask="url(&quot;#SvgjsMask1118&quot;)" fill="none">
        <rect width="1440" height="560" x="0" y="0" fill="url(&quot;#SvgjsRadialGradient1119&quot;)"></rect>
        <path d="M0 0L646.09 0L0 48.18z" fill="rgba(255, 255, 255, .1)"></path>
        <path d="M0 48.18L646.09 0L764.57 0L0 102.31z" fill="rgba(255, 255, 255, .075)"></path>
        <path d="M0 102.31L764.57 0L1143.27 0L0 217.22z" fill="rgba(255, 255, 255, .05)"></path>
        <path d="M0 217.22L1143.27 0L1316.09 0L0 381.82z" fill="rgba(255, 255, 255, .025)"></path>
        <path d="M1440 560L871.25 560L1440 335.41999999999996z" fill="rgba(0, 0, 0, .1)"></path>
        <path d="M1440 335.41999999999996L871.25 560L648.86 560L1440 209.85999999999996z" fill="rgba(0, 0, 0, .075)"></path>
        <path d="M1440 209.86L648.86 560L546.75 560L1440 89.87000000000002z" fill="rgba(0, 0, 0, .05)"></path>
        <path d="M1440 89.87L546.75 560L210.64 560L1440 26.870000000000005z" fill="rgba(0, 0, 0, .025)"></path>
    </g>
    <defs>
        <mask id="SvgjsMask1118">
            <rect width="1440" height="560" fill="#ffffff"></rect>
        </mask>
        <radialGradient cx="50%" cy="0%" r="912.14" gradientUnits="userSpaceOnUse" id="SvgjsRadialGradient1119">
            <stop stop-color="rgba(14, 42, 71, 1)" offset="0.2"></stop>
            <stop stop-color="rgba(255, 60, 172, 1)" offset="1"></stop>
        </radialGradient>
    </defs>
</svg>