<svg xmlns="http://www.w3.org/2000/svg" version="1.1" xmlns:xlink="http://www.w3.org/1999/xlink" xmlns:svgjs="http://svgjs.dev/svgjs" width="1440" height="560" preserveAspectRatio="none" viewBox="0 0 1440 560">
    <g mask="url(&quot;#SvgjsMask1081&quot;)" fill="none">
        <rect width="1440" height="560" x="0" y="0" fill="rgba(255, 251, 150, 1)"></rect>
        <path d="M0,528.642C101.179,548.111,216.257,525.32,294.579,458.373C370.865,393.166,370.465,278.991,403.1,184.089C432.168,99.561,487.379,20.224,475.727,-68.399C464.026,-157.398,397.878,-226.001,340.147,-294.739C281.571,-364.484,225.692,-445.359,138.116,-470.381C50.723,-495.35,-39.274,-456.199,-125.618,-427.815C-209.408,-400.271,-287.566,-364.275,-355.562,-308.097C-434.087,-243.221,-540.07,-180.343,-548.059,-78.799C-556.094,23.337,-454.34,97.149,-393.954,179.913C-345.453,246.387,-291.354,302.939,-229.739,357.481C-156.755,422.087,-95.715,510.224,0,528.642" fill="#fff608"></path>
        <path d="M1440 926.902C1513.539 931.293 1592.284 933.2139999999999 1653.818 892.707 1715.138 852.3399999999999 1755.807 782.487 1769.067 710.28 1781.143 644.523 1743.962 582.676 1722.373 519.401 1704.761 467.783 1682.7359999999999 420.822 1654.404 374.21799999999996 1620.385 318.259 1601.4850000000001 241.97500000000002 1540.004 219.41899999999998 1478.621 196.899 1416.684 248.913 1352.978 263.631 1284.244 279.51 1204.629 263.831 1150.7350000000001 309.35 1095.009 356.416 1067.348 433.271 1065.784 506.196 1064.292 575.789 1111.976 633.302 1142.446 695.888 1172.071 756.738 1188.529 826.61 1241.987 868.114 1297.496 911.21 1369.85 922.713 1440 926.902" fill="#ffffff"></path>
    </g>
    <defs>
        <mask id="SvgjsMask1081">
            <rect width="1440" height="560" fill="#ffffff"></rect>
        </mask>
    </defs>
</svg>